<svg width="113" height="111" viewBox="0 0 113 111" fill="none" xmlns="http://www.w3.org/2000/svg">
<path d="M72.2635 38.1038C69.0204 38.1829 43.0078 39.0756 43.0078 39.0756L43.1773 39.4993H46.8611L43.2677 39.7253L43.3242 39.8722C43.3242 39.8722 60.4098 39.7762 61.6754 39.5615C62.941 39.3524 63.167 39.0925 63.167 39.0925C63.167 39.0925 75.3371 38.7874 77.9135 37.3862C77.9304 37.3919 75.5122 38.0247 72.2635 38.1038Z" fill="url(#paint0_linear_0_284)"/>
<path d="M18.967 43.1492C15.8539 43.895 14.7352 46.0759 14.7352 46.0759C14.7352 46.0759 16.3906 43.7029 20.7524 43.4882C25.1142 43.2791 37.1544 43.0644 37.1544 43.0644C37.1544 43.0644 22.0802 42.4034 18.967 43.1492Z" fill="url(#paint1_linear_0_284)"/>
<path d="M94.0725 43.1492C97.1856 43.895 98.3043 46.0759 98.3043 46.0759C98.3043 46.0759 96.6489 43.7029 92.2871 43.4882C87.9253 43.2791 75.8851 43.0644 75.8851 43.0644C75.8851 43.0644 90.9537 42.4034 94.0725 43.1492Z" fill="url(#paint2_linear_0_284)"/>
<path d="M67.6418 30.5271C55.3756 29.7022 49.703 31.7419 45.2282 33.3521C40.7478 34.9567 36.8323 38.2902 32.7417 38.923C28.6511 39.5558 17.6675 39.3807 13.3227 40.6745C11.6503 41.1717 10.5655 41.5559 9.93833 41.7932C9.57673 41.9288 9.42983 42.3695 9.64453 42.6972C9.64453 42.6972 11.9554 41.3073 17.0404 40.6519C22.1254 39.9965 26.6115 40.2621 26.6115 40.2621C26.6115 40.2621 16.7296 40.7649 13.8594 41.9006C12.3339 42.5051 11.4356 42.8724 10.9214 43.2114C10.5711 43.443 10.4694 43.912 10.6954 44.2679C10.6954 44.2679 13.334 42.1435 17.9274 41.7367C21.7694 41.3977 34.6966 41.2282 38.8211 41.183C39.5952 41.1717 40.3127 40.7875 40.7478 40.1491C41.228 39.4428 41.8721 38.601 42.3128 38.3806C42.3128 38.3806 43.0417 38.3806 43.5615 38.3806C44.0813 38.3806 45.1661 37.7309 45.2169 37.584C45.2678 37.4371 44.5672 36.7082 43.8892 36.6404C43.4202 36.5952 41.9851 38.1094 41.1263 39.0643H38.4256L40.2393 37.4936L36.708 39.5332H40.7082C40.5444 39.7197 40.4483 39.8327 40.4483 39.8327L34.6288 39.7705C34.3463 39.7649 34.2955 39.3637 34.5667 39.2903C35.3294 39.0869 36.1261 38.8496 36.5555 38.6631C37.5103 38.2394 45.9175 32.821 56.839 31.9114C62.8788 31.4085 68.8904 31.9735 73.0771 32.6176C73.5065 32.6854 73.7833 33.1035 73.6873 33.5216L72.6985 37.7309L74.6817 33.3521C74.8003 33.0979 75.0772 32.951 75.354 33.0018C76.5518 33.2222 77.4784 33.4256 78.066 33.5838C80.6481 34.2674 80.8402 34.5217 80.4277 35.3748C80.0153 36.228 79.2695 36.8325 79.2695 36.8325C79.2695 36.8325 80.3995 36.2958 81.4617 35.0189C81.4617 35.0189 91.5469 37.5162 91.4283 37.7422C91.304 37.9738 80.2356 38.132 78.5519 38.5953C76.8739 39.0586 75.8738 40.6011 75.8738 40.6011C75.8738 40.6011 83.4335 39.601 89.5525 39.8722C95.6714 40.1491 97.6998 40.618 98.2987 40.4881C98.8976 40.3581 99.4682 39.7762 99.4682 39.7762C99.4682 39.7762 100.412 40.0982 101.141 39.94C101.869 39.7762 102.276 39.0643 102.276 39.0643C102.276 39.0643 79.9079 31.3577 67.6418 30.5271ZM96.4963 39.8214C95.0047 39.5615 85.3432 38.7083 85.3432 38.7083C88.2643 38.4993 98.3043 39.2451 98.3043 39.2451C98.3043 39.2451 97.9879 40.0813 96.4963 39.8214Z" fill="url(#paint3_linear_0_284)"/>
<path d="M44.1717 35.8607C44.1717 35.8607 51.6466 32.5103 59.2572 32.5103C66.8677 32.5103 72.8737 33.2787 72.8737 33.2787L71.7889 36.3523L44.1717 35.8607Z" fill="url(#paint4_linear_0_284)"/>
<path d="M74.7156 34.3407L73.7946 36.612C73.7946 36.612 78.2412 36.7872 78.9418 36.403C79.6424 36.0188 80.0718 35.1713 79.9192 34.8888C79.8006 34.6741 76.9643 34.0978 75.6422 33.8435C75.2523 33.7644 74.8681 33.9735 74.7156 34.3407Z" fill="url(#paint5_linear_0_284)"/>
<path d="M19.2609 46.6692V49.0026H11.8424V50.5225H19.0801V52.8729H11.8424V56.9465H8.63885V46.6692H19.2609Z" fill="white"/>
<path d="M28.7246 55.0707H22.4926L21.566 56.9465H18.2947L23.487 46.6692H27.6567L33.1542 56.9465H29.6851L28.7246 55.0707ZM25.5436 48.8953L23.6396 52.7486H27.5324L25.5436 48.8953Z" fill="white"/>
<path d="M38.8325 57.1272C33.448 57.1272 32.8265 54.805 32.8265 53.4547V53.3021H36.1826C36.2222 53.9236 36.5838 54.9293 39.2336 54.9293H39.4257C42.1321 54.9293 42.4372 54.3926 42.4372 53.8389C42.4372 53.2456 42.1208 52.8727 39.7421 52.8049L37.9737 52.7654C34.1317 52.6524 32.9621 51.3585 32.9621 49.7539V49.6296C32.9621 48.0985 33.8718 46.4939 38.5556 46.4939H39.5105C44.3695 46.4939 45.4769 48.1945 45.4769 49.737V49.8726H42.1321C42.0643 49.4884 41.8552 48.6409 39.1602 48.6409H38.9398C36.4538 48.6409 36.273 49.0816 36.273 49.5223C36.273 49.963 36.5499 50.3641 38.646 50.4037L40.3749 50.4319C44.2395 50.4997 45.8046 51.4376 45.8046 53.4829V53.675C45.8046 55.3757 44.9458 57.1159 39.7817 57.1159H38.8325V57.1272Z" fill="white"/>
<path d="M50.6127 49.1043H46.1944V46.6748H58.291V49.1043H53.8558V56.9465H50.6127V49.1043Z" fill="white"/>
<path d="M70.1843 57.1272C64.2292 57.1272 63.3083 53.7994 63.3083 51.9744V51.5733C63.3083 49.7088 64.1106 46.4883 70.1843 46.4883H70.7493C76.7044 46.4883 77.6254 49.3359 77.6254 50.5337V50.6862H74.2128C74.128 50.4094 73.7156 48.9743 70.4555 48.9743C67.3763 48.9743 66.67 50.3529 66.67 51.6411V51.8049C66.67 53.0197 67.4836 54.6243 70.4838 54.6243C73.8116 54.6243 74.145 53.0366 74.2241 52.7993H77.6367V52.9519C77.6367 54.2514 76.614 57.1216 70.7437 57.1216H70.1843V57.1272Z" fill="white"/>
<path d="M87.5129 55.0707H81.2866L80.36 56.9465H77.0886L82.281 46.6692H86.4507L91.9481 56.9465H88.479L87.5129 55.0707ZM84.3376 48.8953L82.4335 52.7486H86.3264L84.3376 48.8953Z" fill="white"/>
<path d="M95.7336 56.9465H92.5131V46.6692H100.802C104.226 46.6692 105.265 47.8557 105.265 49.336V49.4998C105.265 50.9801 104.033 51.5282 103.361 51.7485C104.412 52.0536 105.31 52.7825 105.31 54.1102V55.6131C105.31 56.4437 105.406 56.7036 105.502 56.8674V56.9352H102.231C102.135 56.8109 102.079 56.6584 102.079 56.2855V55.099C102.079 53.8447 101.525 53.291 99.9372 53.291H95.7393V56.9465H95.7336ZM95.7336 51.0197H100.61C101.536 51.0197 101.909 50.579 101.909 50.014V50.0027C101.909 49.4659 101.547 49.0083 100.61 49.0083H95.7336V51.0197Z" fill="white"/>
<path d="M24.9674 75.9304C32.7474 75.9304 34.6345 73.3088 35.2165 70.7493L35.2843 70.4555C35.9849 67.3763 33.9565 65.9638 28.1596 65.8564L25.5719 65.8169C22.4249 65.7547 22.148 65.1502 22.3006 64.4835C22.4531 63.8168 22.8769 63.1501 26.6172 63.1501H26.9505C31.0072 63.1501 31.0298 64.4213 31.0016 65.0033H36.0357L36.0809 64.7942C36.612 62.4664 35.5272 59.907 28.2105 59.907H26.7754C19.7242 59.907 17.8032 62.3195 17.2777 64.6304L17.2325 64.8168C16.6845 67.2294 18.0066 69.1843 23.7526 69.3481L26.4025 69.4103C29.9563 69.512 30.3066 70.077 30.1032 70.9697C29.9111 71.8002 29.2727 72.6138 25.1934 72.6138H24.8996C20.905 72.6138 20.7129 71.094 20.8598 70.1617H15.8031L15.7522 70.3877C15.2889 72.4274 15.4302 75.9191 23.5379 75.9191L24.9674 75.9304ZM49.0929 69.3368H43.2282L47.4205 63.5343L49.0929 69.3368ZM50.9009 75.6592H56.1215L51.3698 60.1838H45.0814L33.7362 75.6592H38.663L40.7026 72.8285H50.0816L50.9009 75.6592ZM60.4946 60.1838L56.969 75.6592H72.5686L73.4444 71.8115H62.6924L65.3423 60.1838H60.4946ZM77.8796 60.1838L74.354 75.6592H90.869L91.6882 72.0601H79.9588L80.5351 69.5233H91.7843L92.5922 65.9864H81.3374L81.8572 63.6981H93.3776L94.1799 60.1838C94.1855 60.1838 77.8796 60.1838 77.8796 60.1838Z" fill="url(#paint6_linear_0_284)"/>
<defs>
<linearGradient id="paint0_linear_0_284" x1="7.43218" y1="38.6329" x2="103.037" y2="38.6329" gradientUnits="userSpaceOnUse">
<stop offset="0.00140224" stop-color="#97272D"/>
<stop offset="0.9987" stop-color="#ED1C24"/>
</linearGradient>
<linearGradient id="paint1_linear_0_284" x1="7.4321" y1="44.438" x2="103.037" y2="44.438" gradientUnits="userSpaceOnUse">
<stop offset="0.00140224" stop-color="#97272D"/>
<stop offset="0.9987" stop-color="#ED1C24"/>
</linearGradient>
<linearGradient id="paint2_linear_0_284" x1="105.607" y1="44.438" x2="10.0021" y2="44.438" gradientUnits="userSpaceOnUse">
<stop offset="0.00140224" stop-color="#97272D"/>
<stop offset="0.9987" stop-color="#ED1C24"/>
</linearGradient>
<linearGradient id="paint3_linear_0_284" x1="7.43213" y1="37.3047" x2="103.038" y2="37.3047" gradientUnits="userSpaceOnUse">
<stop offset="0.00140224" stop-color="#97272D"/>
<stop offset="0.9987" stop-color="#ED1C24"/>
</linearGradient>
<linearGradient id="paint4_linear_0_284" x1="58.5258" y1="31.9168" x2="58.5258" y2="35.2781" gradientUnits="userSpaceOnUse">
<stop stop-color="#959DAE"/>
<stop offset="1" stop-color="#959DAE" stop-opacity="0"/>
</linearGradient>
<linearGradient id="paint5_linear_0_284" x1="76.8743" y1="33.7326" x2="76.8743" y2="35.9326" gradientUnits="userSpaceOnUse">
<stop stop-color="#959DAE"/>
<stop offset="1" stop-color="#959DAE" stop-opacity="0"/>
</linearGradient>
<linearGradient id="paint6_linear_0_284" x1="67.892" y1="88.9242" x2="43.8937" y2="47.358" gradientUnits="userSpaceOnUse">
<stop stop-color="#F2F2F2"/>
<stop offset="0.1693" stop-color="#808080"/>
<stop offset="0.4457" stop-color="white"/>
<stop offset="0.8051" stop-color="#716E6F"/>
<stop offset="1" stop-color="#F2F2F2"/>
</linearGradient>
</defs>
</svg>
