<svg xmlns="http://www.w3.org/2000/svg" xmlns:xlink="http://www.w3.org/1999/xlink" height="660" width="600" version="1.0">
  <defs>
    <radialGradient xlink:href="#a" id="b" gradientUnits="userSpaceOnUse" gradientTransform="matrix(1.35322 0 0 1.34893 -77.62935 -85.74693)" cx="221.44487" cy="226.33101" fx="221.44487" fy="226.33101" r="300"/>
    <linearGradient id="a">
      <stop style="stop-color:white;stop-opacity:.3137255" offset="0"/>
      <stop offset=".19" style="stop-color:white;stop-opacity:.25098041"/>
      <stop style="stop-color:#6b6b6b;stop-opacity:.1254902" offset=".60000002"/>
      <stop style="stop-color:black;stop-opacity:.1254902" offset="1"/>
    </linearGradient>
  </defs>
  <g style="display:inline">
    <path style="fill:#fff;fill-opacity:1;fill-rule:evenodd;stroke:none;stroke-width:1px;stroke-linecap:butt;stroke-linejoin:miter;stroke-opacity:1" d="M300 658.5s298.50001-112.32031 298.50001-397.77183V2.1764765H1.5V260.72817C1.5 546.17969 300 658.5 300 658.5z"/>
    <path style="display:inline;fill:#2b5df2;fill-opacity:1;fill-rule:evenodd;stroke:#000;stroke-width:3;stroke-linecap:butt;stroke-linejoin:miter;stroke-opacity:1;stroke-miterlimit:4;stroke-dasharray:none" d="M1.5 62.0625v59.65625h597V62.0625H1.5zm0 119.34375v59.65625h597v-59.65625H1.5zM3.53125 300.75C5.6572852 321.65836 9.3932378 341.52693 14.5 360.40625h571c5.10676-18.87932 8.84271-38.74789 10.96875-59.65625H3.53125zm32.8125 119.34375c10.012815 21.46479 21.715058 41.33917 34.5625 59.65625h458.1875c12.84744-18.31708 24.54968-38.19146 34.5625-59.65625H36.34375zM121.3125 539.4375c23.58621 23.59167 48.19847 43.40479 71.34375 59.65625h214.6875c23.14528-16.25146 47.75754-36.06458 71.34375-59.65625h-357.375z"/>
    <g style="stroke:#000;stroke-width:2.4000001;stroke-miterlimit:4;stroke-dasharray:none;stroke-opacity:1">
      <g style="fill:#e90909;fill-opacity:1;stroke:#000;stroke-width:2.32979941;stroke-miterlimit:4;stroke-dasharray:none;stroke-opacity:1">
        <path d="M1167.5049-53.102817c-.1156-.11037-.1156-.220741-.1156-.220741-.3431-.551854-.6863-.882966-1.0283-1.324448-.1156-.220742-.2288-.331113-.2288-.441483-.4576-.441483-.8008-.772595-1.2595-1.214078-1.4871-1.434819-3.3162-2.648897-5.4908-3.531862-.1144-.110371-.3432-.110371-.4564-.220742-1.8314-.662224-3.6606-1.324448-5.8352-1.765931-4.0037-.441483-7.7786.551854-11.2104 2.869638-3.4318 3.200751-4.3469 6.180759-2.7454 8.719286 0 .11037 0 .220741.1155.331112.1144-.110371.1144-.331112.2288-.441483 1.3716-3.862975 5.0321-5.960018 11.0949-6.511871 2.6322.11037 4.8045.551853 6.4071 1.324448 1.3727.662224 2.4022 1.54519 3.203 2.538526.2288.331112.3432.662224.5719.993336.2288.331112.3432.882966.572 1.434819.8007 6.511872-.8007 11.478553-4.8045 15.010416-5.1476 4.525198-11.4392 5.960017-18.9891 4.194086-7.551-1.765931-13.4982-.993336-17.9595 2.428156h-.1144c-3.4318 3.20075-6.0639 6.953354-7.7798 11.368182 1.7159-4.414828 4.348-8.167432 7.7798-11.368182v-.110371c-1.4882-7.284466-5.492-12.692631-11.7835-16.445234-4.3469-1.434819-9.1514-1.986673-14.5267-1.324449-7.551 1.103707-12.1267 4.63557-13.6126 10.705958-1.0296 4.304457.2287 8.057061 3.8893 11.03707 2.1723 1.434819 4.6901 1.655561 7.6631.331112-5.1476-1.54519-6.8635-4.304457-5.0321-8.388173 1.3727-1.65556 3.7749-2.648897 7.32-2.648897 3.3173.110371 5.9483 1.54519 7.893 4.194087 2.2878 4.966681 2.9742 9.160768 1.9447 12.913372-.3432 1.434819-1.0296 2.759267-1.9447 3.973345-9.8377 13.3548547-15.6717 28.034158-17.6164 44.14828-1.1439 12.69263-1.2583 21.963769-.6863 27.813416.1144 2.097044.4575 4.194087.6863 6.511872.572 4.194086 1.3727 8.940026 2.2879 14.017079 1.4882 7.836319 5.3764 18.98376 11.7835 33.774536 3.0874 7.72595 7.0912 13.5756 12.2388 17.43857 1.6015 1.10371 2.8598 2.09594 4.2325 3.19965 4.1193 3.53186 6.5204 7.28557 7.0923 11.14854-1.8302-4.19408-5.1476-6.73371-9.9521-7.72595-.8007-.11147-1.6003-.33111-2.4022-.33111-4.0037-.55185-8.0075-.11147-11.8968 1.10371-2.5166.21964-4.9189.21964-7.0923-.22074-4.3469-.88297-8.0075-3.09038-10.8673-6.51187-2.8598-4.5252-1.6003-9.27004 3.6606-14.12745-5.7196.99333-9.4946 3.86297-11.668 8.71928-1.1439 4.5252-1.0284 8.49744.572 12.0293 4.0037 5.51854 9.0369 8.16744 15.0997 7.83743h1.2595c-.4576.21964-.8008.55185-1.2595.77149-4.0037 2.53963-8.8082 4.41483-14.4134 5.63001 3.8882 2.53852 8.6938 2.64779 14.4134.33111-8.1218 5.84965-10.8672 12.47189-8.3506 19.9771 3.7749 7.94669 9.8377 11.80966 18.4171 11.25781h.1156c.1143-.11037.2287-.11037.4564-.11037.8007-.11148 1.4882-.22074 2.2878-.33111 6.8635-2.53963 9.7233-5.85075 8.8082-9.93337-2.631 3.64224-6.5203 5.18632-11.3237 4.74594-5.7196-1.76703-8.5794-5.51853-8.465-11.58892.6864-3.64223 2.2879-6.4015 4.6901-8.38928 2.8598-2.31778 6.9791-3.64223 12.24-3.64223 12.8119 1.21518 20.8193 5.51853 23.9079 12.91337 2.8598 7.83632 3.3162 15.01042 1.2583 21.8534-3.5461 9.16077-10.8672 16.11523-21.9633 20.74969-6.8635 2.31889-13.3827 3.20075-19.4466 3.20075-6.0628-.22074-11.7824-1.54519-17.1588-4.08371-6.6348-4.30336-13.3828-8.27781-19.7899-12.02931 0-.11147-.2288-.11147-.2288-.11147-8.235-5.51854-15.0986-13.13301-20.5905-22.84674-2.9742-5.51853-5.1477-11.2567-6.0628-16.88671v-.22074c-.8008-6.95336-2.1723-13.90671-4.3469-20.85896l.3432-.33111c3.4317 2.9789 6.8635 4.41482 10.1809 4.30335-5.4909-4.85521-9.3802-10.48522-11.5548-16.77635-.1144-.55185-.1144-.99223-.1144-1.65556l-.5708.11037c-2.9742 1.54409-6.5204 2.20742-10.5241 1.98667-4.5757-.44148-8.2362-1.8763-11.32365-4.41482-3.20412-2.53853-5.60521-6.07039-7.20784-10.70596-2.05906 1.32445-4.11812 2.31889-6.17603 3.09038 0 .22074-.1144.33221-.22879.55185-4.23251 6.73372-9.95211 11.7004-17.3876 14.90005-1.83027.77259-3.77494 1.43592-5.7196 1.98777 1.3727-1.32445 2.40223-2.75926 3.31737-4.19519 1.94466-3.31112 2.51663-6.84188 1.83027-10.37374-3.08858.7726-5.7196 1.98667-8.00744 3.7515-.91514.66333-1.71589 1.54519-2.51663 2.42816-4.57568 4.74594-4.57568 9.60225-.22878 14.78967-3.31738.44038-5.71961-.33111-7.43549-2.42816-.57196-.77259-1.02953-1.54519-1.37271-2.42815-.11439-.33111-.11439-.44038-.22878-.66223-1.4871-4.5263-.11439-9.05039 4.11811-13.57559.80075-.88407 1.60149-1.65556 2.51663-2.42816-7.32109 2.6478-11.5536 6.95336-12.46874 13.13301.57196 2.98001 1.83028 5.85075 3.77494 8.38928 0 .11037.22879.33111.34318.44038.68635.88407 1.60149 1.8763 2.51662 2.75927l.1144.11147c-6.06279-1.32445-10.98165-4.5263-14.64219-9.93336-1.94467-3.4226-2.17345-7.72595-.57196-13.13412l.11439-.11037c.34318-1.54519 1.02953-3.09038 1.71588-4.85631l-8.80819 5.96002c-3.66055 1.8763-8.12184 2.86964-13.26949 2.75927h-.11439c-2.74541.33111-5.37643.99223-7.77866 1.8763-4.46129 1.54409-8.23623 4.19409-11.43921 7.83632-2.40223-1.76593-2.97419-4.41483-1.60149-7.61558.68635-.99223 1.37271-1.98667 2.17345-2.9789l-4.23251 1.1037-29.16998 27.59268c-1.37271 1.21408-1.60149 2.53852-.80075 3.53076-4.80447.33221-8.5794 1.54519-11.21042 4.19519-1.14392 1.21408-2.17345 2.31778-3.54616 3.53076-3.08858 2.98001-7.09231 5.51853-11.5536 8.05816-2.17345.99223-4.46129 1.43482-6.74913 1.43482-1.4871-.11147-2.9742-.33111-4.57569-.77259l-.34317-.11038-6.29157-1.21518c-3.43176-.22074-5.49082.44149-6.06278 2.20742-.11439.44148-.11439.88296 0 1.32445.22878.88296.91514 1.43481 2.40223 1.76593 3.88933.55185 5.94839 1.54519 6.29157 3.09148 1.02953 2.75927.34317 4.63447-1.94467 5.62891 1.02953 4.30445 4.00373 6.95335 8.80819 8.16743.22879-3.64334 2.05906-5.96002 5.49083-6.95446l4.46129 4.96668 5.37643-4.85521c2.05905-2.31888 2.74541-5.07815 2.17345-8.2778.57196 3.19965-.1144 5.95892-2.17345 8.2778l-5.37643 4.85521c-2.28785 3.09148-3.66055 6.18186-4.23251 9.27114l2.28784 4.41483c1.02953-2.6489 3.31737-3.64224 6.97792-3.31112 3.54615 1.1037 5.49082 3.31112 5.834 6.4015 2.40223 1.76703 6.17717 2.09704 11.21042 1.1037-2.40223-2.20741-3.88933-4.63556-4.57568-7.39483l-.11439-.11037c-.22879-1.21408-.45757-2.6489-.45757-4.08372 0 1.43482.22878 2.87074.45757 4.08372l1.14392-.22074c3.43176-2.31779 7.2067-2.98001 11.09603-1.87631 4.80447-4.74594 7.54988-9.49188 8.23623-14.01597.11439 0 .11439 0 .11439-.11148 2.40224 6.84299 7.89306 8.49855 16.81564 4.85631-6.74913.66223-8.12184-1.65556-3.77494-6.73371.1144.11147.22879.11147.45757.11147 4.00373-1.65556 6.17718-3.86297 6.29157-6.62224v-.99334c.11439.22075.34317.55186.34317.7726l.1144.11037c1.71588 3.64334 3.31737 4.96668 4.57568 4.30446.80074-6.4015 2.74541-11.03707 5.7196-13.68597-.22878 7.61558 1.83028 11.7004 6.40596 12.47299.68636-4.41482 1.60149-8.16743 2.74541-11.36928.11439-.11037.11439-.33111.22879-.44038 1.60149-4.19409 3.77494-7.06373 6.40595-9.0504.22879 3.53186-.80074 7.1741-3.20297 10.70596 4.57568-1.76704 8.23623-4.41483 11.09603-8.05706 2.17345-3.4226 3.08859-7.1741 2.97419-11.25781 4.69008 8.49854 4.4613 16.44413-.57196 23.84007l13.95584-10.70596c1.37271-.99223 2.8598-1.98667 4.3469-2.86964 6.06278-3.7526 12.69752-5.73927 19.90423-6.07039-7.20671.33112-13.84145 2.31779-19.90423 6.07039-1.4871.88297-2.97419 1.8763-4.3469 2.86964 1.02953 6.4026 0 11.03707-2.97419 14.23782 5.14764.55185 9.03697-2.53853 11.43921-9.0504.22878-.55185.34317-.99223.57196-1.54408-1.25832 5.84964.11439 9.93336 4.11811 12.47189 8.35062 3.7515 17.04442 6.29113 25.96701 7.61447 1.25831.33222 2.51662.66333 3.66055 1.10371.91513.33221 1.71588.77259 2.63101 1.21518 1.02839.33111 1.94353.88296 2.85981 1.54408 4.23136 2.6489 7.66312 6.29113 10.63847 11.14855 1.0284-2.6489.9151-5.96002-.3432-9.82299-1.71587-2.6478-3.77607-4.85521-6.06391-6.84299-1.4871-1.1037-2.97419-2.09594-4.46015-2.86963 1.4871.77259 2.9742 1.76593 4.46015 2.86963 2.28784 1.98778 4.34804 4.19519 6.06391 6.84299 1.2583 3.86297 1.3716 7.17409.3432 9.82299-.1155 0-.2288.11037-.1155.22074-1.83032 3.19965-2.85985 6.51077-3.20302 10.26448-.1144.55185-.1144 1.21407-.1144 1.76593 0 2.31889.1144 4.74594.45643 7.17409 1.60149 3.4226 2.28789 6.51187 1.94469 9.38151-.3432 2.6489-1.48712 5.18742-3.43179 7.39484-.22878.22074-.34317.44148-.68635.77259-6.52035 5.40706-11.32482 10.81633-14.75658 16.2245-3.43176 6.18076-5.49082 12.47189-6.29157 18.65154-.45757 6.29113-.68635 11.7004-.80074 16.00375.11439 2.31889-.68635 4.30446-2.51663 5.96002-1.83027 1.54409-4.46129 2.86964-8.12184 3.7515-3.20298.7726-6.17717.7726-8.6938 0-2.8598-.99223-4.80447-2.64779-5.94839-5.07705-.45756-.66223-.68635-1.65556-.91513-2.53853-.80075-4.30445.91513-8.60891 5.26203-12.8041-4.57568.88407-8.35062 2.98001-11.32481 6.18186-2.05906 4.19409-2.63102 8.05706-1.60149 11.47745.11439.44148.34317.77259.45756 1.21518 1.83028 4.30335 4.4613 7.39484 7.89306 9.38151 6.40596 2.31779 13.15509 2.64779 19.78983.7726.1144 0 .34318 0 .45757-.11148 3.43176-1.65556 6.29157-3.64223 8.6938-5.84965.11439-.22074.34318-.33111.45757-.55185.11439-.11037.22878-.33111.34318-.44148 1.14392-1.21408 2.17345-2.53853 2.97419-3.86298.91514-1.65556 1.71588-3.42149 2.28784-5.29779-.57196 1.8763-1.3727 3.64223-2.28784 5.29779-1.94467 5.40817-3.08859 10.37485-3.66055 14.90005v.11147c2.85981-3.31112 5.834-5.63001 8.6938-6.84298 1.60149 7.50521 1.83142 13.46522.6875 17.65931-1.60149 5.29779-3.5473 9.27114-5.83514 11.47855 1.02953.21964 2.05906 0 3.08858-.22074 2.9742-.88296 6.17718-3.42259 9.38016-7.83742 2.97419-3.64223 4.3469-8.16633 4.2325-13.35486-.11553-2.86963-.57196-5.40816-1.25945-7.39483-.22879-.55186-.45643-1.10371-.68635-1.65556-.45757-.7726-.91514-1.54409-1.4871-2.09594.57196.55185 1.02838 1.32334 1.4871 2.09594.34317.55185.68635.99333 1.14392 1.54519 3.66056 4.30335 8.00746 6.51076 12.92626 6.4015.2288 0 .4576 0 .8008-.11037.4564-.11148.8007-.11148 1.2583-.11148h.2288c2.8598-.44038 5.262-1.10371 7.2067-2.09594-2.8598.11037-5.4908-.22074-7.7787-.99333-3.203-.88297-5.9484-2.6489-8.1218-5.07706 2.1723 2.42706 4.9188 4.19409 8.1218 5.07706 2.2879.77259 4.9189 1.1037 7.7787.99333 3.0886-1.54519 4.9188-3.97445 5.9484-7.06372-1.0296 3.09038-2.8598 5.51853-5.9484 7.06372-1.9447.99223-4.3469 1.65556-7.2067 2.09594h-.2288c-.4564 0-.8007 0-1.2583.11148 4.9188 9.38151 14.6422 14.90004 29.0544 16.66597 1.4883.11037 3.2042.33111 4.8045.44148-1.6003-.11147-3.3162-.33221-4.8045-.44148-7.5498 10.04374-12.3543 19.86673-14.6422 29.91046-1.7158 5.73928-3.0885 11.80967-3.8881 17.99153-.572.66222-1.2595 1.21408-2.0602 1.8752-.572.33221-1.0284.55185-1.6004.77259-1.6015.66333-3.6605 1.10371-6.0628 1.32445-2.5166-.22074-4.92-1.32445-6.979-3.31112-2.631-.33111-5.6041-.33111-8.92261 0-1.71588.66222-2.28785 1.76593-1.71588 3.31112 1.94466.55185 3.31737 1.98667 4.11811 4.19409.57196 2.31889.34432 4.41483-.45642 6.51187-.11554.22074-.11554.33111-.22879.55185-1.14392 3.19965-1.02953 6.18076.22879 8.71818 6.5203-1.21407 10.0665-4.52519 10.7517-10.04373.572 3.20075 2.0602 4.85631 4.2325 5.18742h.3432c1.8314-3.7526 4.8045-6.84298 8.6949-9.16077.4565-.44148 1.0284-.77259 1.6004-.99333.6875-.33111 1.3727-.66223 1.9446-.88297-.5719.22074-1.2583.55186-1.9446.88297-.572.22074-1.1439.55185-1.6004.99333-3.8893 2.31779-6.8635 5.40707-8.6949 9.16077l1.2595 4.5252c1.9446-.55185 4.0037-.77259 5.9483-.66222 2.4023 1.32445 4.1182 2.98001 5.4909 4.8552.1144 0 .1144.11148.2287.11148.6864 1.10371 1.3716 2.20741 1.7159 3.53186l.4565.33111c5.4908-1.1037 7.551-3.31112 5.9483-6.51187-.1144 0-.1144-.22074-.2287-.33111-.2288-.33111-.4565-.66222-.6864-.99334l-3.203-3.09038 3.203 3.09038c.2288.33222.4564.66333.6864.99334.1155.11037.1155.33111.2287.33111l.4576-.33111c2.1723-1.21408 4.1181-2.42816 5.6041-3.86297 1.9446-1.87631 3.3173-3.97335 4.1192-6.29113.2277-3.4215-1.4882-5.73928-5.0332-6.95336 3.5461 1.21408 5.262 3.53186 5.0332 6.95336-.8007 2.31888-2.1734 4.41482-4.1192 6.29113l.3432.44148c0 .21964.2287.55185.3443.88296.7996 1.54409 2.1723 2.53853 4.2313 3.19965 3.6606-1.21408 6.064-2.64779 7.3211-4.41483-.5719-2.42705.2288-4.63446 2.2879-6.51077 1.9446-1.32444 4.1181-2.09704 6.2915-2.09704 1.3727 0 2.7455.7726 4.0038 2.20742h.1144c1.7158-.33112 2.5166-1.10371 2.1734-2.20742.3432-2.09594 0-4.08371-.572-6.07039-.1143-.22074-.1143-.44038-.2287-.55185-.4565-.99223-.9152-1.98667-1.4871-2.98001-.2288-.21964-.4576-.55185-.6864-.77149 0-.11147-.1155-.33222-.2288-.44148l-.1155-.11037c-3.203-2.6489-6.8635-4.52631-10.6385-5.63001 3.775 1.1037 7.4355 2.98001 10.6385 5.63001l.1155.11037c.1144.11037.2288.22074.2288.44148.2277 0 .3432.21964.572.33111.7996.33111 1.3715.7726 2.1723 1.10371.3432.22074.6875.33111 1.0295.44038 2.631.99333 7.32.66333 14.0702-1.10371-5.834-1.54409-9.1513-3.7515-10.1809-6.62224-1.3715-2.97891-1.9435-6.18076-1.7158-9.60115v-1.43592c-.1144-.55185-.2277-1.32335-.3432-2.09594-.9152-1.10371-2.8598-2.31889-5.9484-3.53186 3.0886 1.21407 5.0332 2.42815 5.9484 3.53186.6875.55185 1.3727 1.10371 2.059 1.76593 2.4034 2.6489 4.5757 6.4015 6.1772 11.36818 3.4318-4.96668 4.5757-10.153 3.3174-15.4519 0-.11037 0-.11037-.1156-.21963-.1143-.55186-.2287-1.10371-.4564-1.65556-.4575-1.98778-1.4882-3.64334-2.9753-5.2989-1.4871-1.65556-3.6606-2.97891-6.176-4.19409 2.5154 1.21518 4.69 2.53853 6.176 4.19409 1.4859 1.65556 2.5166 3.31112 2.9753 5.2989.2277.55185.3432 1.1037.4564 1.65556.1156.11037.1156.11037.1156.21963 3.8882 1.65556 7.6631 2.09705 11.4392 1.21519 4.2314-1.76704 7.3199-3.75261 9.0358-6.07039-2.631.44038-5.0321.44038-7.0923.44038-.1144-.21964-.1144-.21964-.1144 0-3.5461-.44038-6.5203-1.54409-9.1513-3.19965-.1144-.11147-.3432-.33111-.4576-.44148-.1144-.11037-.1144-.11037-.2277-.11037-.9162-.7726-1.6014-1.54519-2.1734-2.31889-1.9447-2.31779-2.8598-4.96668-2.7454-8.16633l.2288-.44148c5.7196 1.43482 10.6384 5.40816 14.8709 11.92003 2.5167-5.40706-1.4871-12.69263-12.2399-21.96266 4.348.77259 7.6643 2.20741 9.7233 4.5252 1.8314-1.76594 2.0602-3.7515 1.0295-5.95892-2.059-4.74704-5.6052-8.05816-10.4096-10.04484 5.0321 1.98668 9.9509 3.31113 14.8709 4.19409 1.3716.33222 2.7443.55185 4.2314.66333 7.8931.11037 12.8119-2.31889 14.4145-7.1741-2.1734.66223-4.2325 1.21408-5.9483 1.65556H1110.4175c-4.4613.7726-7.8931.55186-10.5241-.66332-.2288-.11037-.3432-.33112-.5719-.33112-4.8045-2.31778-8.0075-5.6289-9.6078-10.04373 3.203-2.31889 6.748-2.87074 10.5229-1.65556 4.6912 2.09594 8.0074 4.85521 9.7233 8.38817 2.1735-5.40706.3444-10.1541-5.3753-14.23671-.3443-.33222-.6875-.44149-1.0295-.66333-6.5203-2.86964-13.4983-3.19965-20.8193-.7726 7.6642-3.09038 13.3838-7.06262 17.1588-11.80856 1.3727-2.87074 1.0295-5.2989-.9152-7.39483-4.2325 5.07705-10.524 8.16632-18.7603 9.60225-5.262 0-9.4945-.88407-12.9263-2.87075 6.8635-1.65556 10.5241-5.6289 10.9828-11.58892-.3443.22074-.4576.44148-.6875.7726-.2288.22074-.4564.33111-.8007.66222-3.203 2.75927-6.978 4.19519-11.4392 4.19519h-1.0284c-1.0296-.11147-2.1735-.22074-3.203-.44148-5.492-2.86964-8.5794-6.73262-9.3802-11.80967 3.3163 3.86298 7.7787 5.96002 13.0396 6.18187 3.2041-.33222 5.492-1.32445 6.7491-2.98001.2288-.33112.4576-.66333.572-1.10371-2.0591.22074-4.0037 0-5.834-.55185-7.3211-2.20742-13.2706-10.04484-18.1884-23.28933v-.33111.11148c0 .11037 0 .11037.1144.21963 4.0038 6.40261 9.1514 9.27114 14.9865 8.16744-2.7454-2.98001-5.0332-6.84299-6.7491-11.47856-1.8303-4.63446-2.9742-10.04373-3.5461-16.22339-.2288-1.8763-.3432-3.86297-.4576-5.96001v-4.08372c.6875.66333 1.3727 1.32445 2.1734 2.09704.9152.7726 1.8303 1.65556 2.7443 2.42816 8.5794 6.84188 19.219 9.93336 32.0298 9.38151h1.7159c15.2187.21743 28.717-4.52851 40.385-14.46187 13.3827-11.14744 20.133-28.03306 20.2462-50.32904.4576-3.86298 1.9447-6.07039 4.5757-6.62225 2.0602-.33111 4.6912.33112 8.123 2.31779 1.3727-5.29779-1.6015-8.38817-8.8082-9.0504h-.1144c-.1155-.11037-.3443-.11037-.4576-.11037-4.5756.7726-7.893 2.86964-9.9521 6.29113-.3432.55185-.6863 1.10371-.9151 1.76593.2288-.66222.5719-1.21408.9151-1.76593 2.0591-3.42259 5.3765-5.51853 9.9521-6.29113.1144-.11037.3432-.11037.4576-.11037 10.8673-11.58892 15.0986-19.75635 12.5831-24.39303-1.7158-3.64223-4.348-6.18076-8.1229-7.39483 5.1476 5.63 3.0885 10.59669-6.1761 14.78967-8.465 2.6489-13.727 9.27114-15.6717 19.53561-2.2878-8.49854-5.6052-15.01152-9.9521-19.31487-5.3764-5.07816-10.6385-12.91337-15.9005-23.17785-2.9742-6.95335-4.3469-13.24448-4.2314-19.094127 0-1.43482.2277-2.759268.4565-4.083716v-.110371c.8007-3.752604 2.5166-6.29113 5.1476-7.94669 3.5473-2.207414 7.7787-2.207414 12.4687-.110371 1.8303 1.986672 1.7159 3.752604-.3431 5.297793 4.8033-.441482 6.748-2.317784 5.604-5.739276-.5719-.882966-1.2583-1.65556-1.9446-2.428155-4.0038-3.862975-9.951-5.187423-17.8452-3.642233-.1144.11037-.2288.11037-.4576.11037-.2276.110371-.5719.331112-.7996.441483-4.92 1.986673-7.7798 6.070389-8.9237 12.140777-3.5462-13.023743-4.8033-27.040821-3.6594-42.161607.6863-8.057061 4.1181-16.224493 10.5229-24.281554 8.123-7.5052079 14.7566-11.25781171 20.363-11.03707031 5.4908.22074141 10.6384 1.87630191 15.6705 5.07705221 4.92 3.2007503 6.9791 8.9400271 6.4071 16.9970881-.6875 5.187423-4.0037 9.160768-9.8388 12.030406-.3432.110371-.4565.331112-.6864.441483-1.0295.441483-2.2878.993336-3.6605 1.434819-.572.110371-1.1439.331112-1.7159.441483-2.631.772595-5.3764-.220742-8.0075-2.538526-1.7158-2.097044-2.059-5.187423-1.2583-9.271139-5.1476 5.628905-5.4908 10.926699-.9151 15.78301 3.6594 3.973345 8.4639 4.635569 14.299 2.317785 1.2583-.551854 2.631-1.214078 4.1181-2.097044-1.4871.882966-2.8598 1.54519-4.1181 2.097044-6.4071 8.277802-3.5473 13.244484 8.6938 14.458561 1.2583.110371 2.631.220742 4.1181.220742-9.2657-1.103707-11.5536-4.083716-6.8635-8.719286.6875-.772595 1.4882-1.545189 2.6322-2.317784.7996-.662225 1.4871-1.324449 2.4022-1.876302 14.5278-9.271139 19.9042-21.301545 16.2437-35.9808484-3.3174-9.16076811-9.4946-16.3348636-18.7603-21.1911746-1.4871-.772595-3.0886-1.434819-4.8045-2.317785-3.3162 0-6.406.110371-9.379.441483-2.7454.551854-4.8045 1.434819-6.4071 2.538526 1.6015-1.103707 3.6605-1.986672 6.4071-2.538526 2.9742-.331112 6.0628-.441483 9.379-.441483 1.9447.110371 4.0037.220742 6.0639.331113 4.8033.220741 8.9226-1.324449 12.2388-4.525199 5.6052-5.960018 9.037-12.58226 10.1809-19.977097.2288-4.965578-.9151-9.932259-3.5461-14.898941z" style="fill:#e90909;fill-opacity:1;stroke:#000;stroke-width:2.32979941;stroke-miterlimit:4;stroke-dasharray:none;stroke-opacity:1" transform="matrix(1.04199 0 0 1.01841 -726.00183 150.09221)"/>
        <path d="M995.80233-53.323558c-5.49082 2.428155-13.95583 3.973345-25.39504 4.856311-.34318.11037-.68635.11037-.91514.220741h-.11439c-17.84517 2.317785-31.22904 5.408164-40.03724 9.49188-2.28784.993337-4.2325 1.986673-5.83399 3.09038.22878 2.980009 1.48709 4.74594 3.88933 5.297794v.11037l4.11811-2.317784v-1.876302 1.876302l-4.11811 2.317784c-.45757 2.759268-.45757 5.187423-.11439 7.284466 3.54615 6.732613 8.92258 11.588924 16.12928 14.4585622h.11439l.1144.1103707c3.20298-.1103707 6.29156-.1103707 9.03697.1103707 3.77494.2207414 7.20671.6622242 10.1809 1.2140777h.11439c2.9742.5518535 5.49082 1.3244484 7.77866 2.3177847 4.00373 1.7659312 7.3211 3.7526038 9.83773 5.9600178 1.25831 1.103707 2.28784 2.3177847 3.20297 3.5318624 2.74541 4.3044573 2.85981 7.8363198.1144 10.5955868-.22879.110371-.34318.220742-.45757.331112-1.60149 1.214078-4.23251 2.097044-8.23623 2.097044-7.20671 0-13.15509-.882966-17.61639-2.538526-.57196-.220742-1.25831-.331112-1.94466-.551854-3.08859-.882965-6.86353-1.214077-11.09604-1.103707-1.25831.110371-2.74541.220742-4.11811.331112-2.05906 2.207414-1.94467 4.414828.11439 6.622242-2.40223 4.304458-7.09231 5.518535-13.95584 3.421492 2.51663 4.194087 5.60522 6.180759 9.49455 5.960018 3.43176-.441483 7.09231-1.655561 10.52407-4.083716.22879-.110371.45757-.220742.68635-.331112-.22878.11037-.45756.220741-.45756.551853-3.54616 3.421492-5.834 6.622242-6.86353 9.38151v.110371c-.11439 0-.11439 0-.11439.11037-.45757 1.434819-.68635 2.759268-.34318 3.973345.34318-1.324448 1.02953-2.538526 2.05906-3.642233 2.97419-3.20075 8.35062-5.297793 16.12929-6.070388-.34318 2.980009-2.9742 6.070388-7.66428 9.271139 9.15137-1.214078 15.32855-4.304458 18.64592-9.050398.80074 4.74594 3.43176 7.174096 8.00744 7.505208-1.48709-3.531863-1.02953-6.511871 1.25832-8.719286 3.31737 6.070389 8.92258 9.822993 17.04328 10.9267-4.11812-3.200751-6.06279-7.394837-5.71961-12.692631 3.5473 3.311121 6.52035 4.74594 9.03698 4.525199-.45757-4.525199 1.02953-8.608915 4.34688-12.251148 1.1439 4.194087 5.9484 6.622242 14.4146 7.063725-6.2916-5.297794-9.037-10.705958-8.695-16.224493.4576-5.6289055 1.3727-9.9333628 2.631-13.0237424 3.4318.4414828 5.7196 3.0903796 7.0924 8.2778025.9151-9.0503974-2.7443-15.0104152-11.0961-17.9904241 2.4034.551853 4.8045.993336 7.0923.993336 1.4871 0 2.8598 0 4.3469-.220741 4.8045-.662224 7.4355-4.63557 7.4355-11.920036 0-1.434819 0-2.759267-.3432-3.862974v-.110371c-.8007-3.311121-2.8598-5.518535-6.0627-6.732613-.1144-.11037-.3432-.11037-.4576-.11037 0-.110371-.2277-.110371-.2277-.110371-.6874-.220741-1.2594-.331112-2.0602-.441483-.5719-.110371-1.2583-.110371-1.9435-.220741-4.0037.11037-6.7491 1.103707-8.123 3.311121 1.3727-2.207414 4.1193-3.200751 8.123-3.311121.6864.11037 1.3716.11037 1.9435.220741.8008.110371 1.3728.220742 2.0602.441483 0 0 .2277 0 .2277.110371.1155 0 .3443 0 .4576.11037 3.2029 1.214078 5.262 3.421492 6.0627 6.732613v.110371c.3432 1.103707.3432 2.428155.3432 3.862974 0 7.284466-2.631 11.257812-7.4355 11.920036-1.4871.220741-2.8598.220741-4.3469.220741-2.2878 0-4.69-.441483-7.0923-.993336 8.3518 2.9800089 12.0112 8.9400267 11.0961 17.9904241-1.3728-5.1874229-3.6606-7.8363197-7.0924-8.2778025-1.2583 3.0903796-2.1723 7.3948369-2.631 13.0237424-.3432 5.518535 2.4034 10.926699 8.695 16.224493-8.4651-.441483-13.2707-2.869638-14.4146-7.063725-3.31621 3.642233-4.80445 7.725949-4.34688 12.251148-2.51663.220741-5.49082-1.214078-9.03698-4.525199-.34318 5.297794 1.60149 9.49188 5.71961 12.692631-8.12184-1.103707-13.72706-4.856311-17.04328-10.9267-2.28785 2.207415-2.74541 5.187423-1.25832 8.719286-4.57568-.331112-7.2067-2.759268-8.00744-7.505208-3.31737 4.74594-9.49455 7.83632-18.64592 9.050398 4.69008-3.200751 7.3211-6.29113 7.66428-9.271139-7.77867.772595-13.1551 2.869638-16.12929 6.070388 2.74541 1.434819 4.23251 2.980009 4.46129 4.525199.22879 1.876302-.68635 2.980009-2.63102 3.421492-1.60149-.551854-3.20298-.993337-4.80447-1.324449-5.83399-1.324448-11.5536-1.434819-17.2732-.551853-.22879 0-.34318 0-.45757.11037-.45757 0-.91514 0-1.25831.110371-5.60522-2.207414-8.35063-5.960018-8.6938-11.257811-4.80447 2.097043-7.09231 5.187423-6.40596 9.381509 3.08859 6.622242 8.92258 9.933363 17.73077 10.264475h.57196-.57196c-11.78238 1.876302-19.10348 6.842984-21.96328 14.900045-3.31737 5.297794-8.12184 4.74594-14.29901-1.655561.34317.882966.91514 1.876302 1.3727 2.648897 1.60149 2.869638 3.43177 5.408164 5.37643 7.725949h.11439c2.63102 2.980009 5.49083 5.408165 8.8082 7.505208-.1144-4.083716 1.25831-7.284466 4.11811-9.712622.57196-.551853 1.14392-.993336 1.94467-1.434819-.80075.441483-1.37271.882966-1.94467 1.434819-2.8598 2.428156-4.23251 5.628906-4.11811 9.712622-.34318 4.304457-2.28785 7.505207-5.94839 9.712621-3.66055 2.317785-6.74914 2.097044-9.38016-.331112-.34317-.331112-.57196-.662224-.91513-.882965-.80075-1.103707-1.02953-2.317785-.34318-3.752604l-3.20298-1.103707c-.80074.882965-1.3727 1.986672-1.83027 3.311121-.34318 2.097043-.34318 3.973345 0 5.518535.57196 2.428155 1.94467 4.194086 4.00372 5.628906.80075.441486 1.71588.882966 2.85981 1.324446 1.3727.33111 2.74541.7726 4.00372.99334.22878.11037.57196.11037.80074.21964.57196.11147 1.25832.11147 1.94467.22074 1.4871.11147 2.97419.11147 4.46129-.11037 1.02953-.22074 2.17345-.44149 3.31737-.7726.22879-.11037.45757-.22074.68635-.22074.57197-.33111 1.02953-.66222 1.71589-.88297 1.3727-.77259 2.8598-1.765926 4.11811-2.980004 1.83028-1.765931 3.31737-3.862975 4.69008-6.511871 1.83027-3.752604 4.11811-6.18076 6.97792-7.284467-2.85981 1.103707-5.14765 3.531863-6.97792 7.284467-1.37271 2.648896-2.8598 4.74594-4.69008 6.511871-1.25831 1.215181-2.74541 2.207414-4.11811 2.980004-.68636.22075-1.14392.55186-1.71589.88297-.22878 0-.45756.11147-.68635.22074l-.22878.33111c-1.02953.44149-2.05906.7726-2.9742.99334-.22878.11037-.45757.11037-.45757.11037-1.48709.11148-2.8598 0-4.11811-.55185-.68635-.11037-1.37271-.11037-1.94467-.22074-.22878-.11037-.57196-.11037-.80074-.21964.11439.11037.11439.33111.22878.44038 0 .22074.22879.55185.34318.77259 0 .11037.11439.33111.22878.44149 0 .11037 0 .21963.1144.33111 1.94466 3.19964 4.69007 5.18742 8.12183 5.95891 2.17345-1.54408 4.3469-2.9789 6.86353-4.19409 2.05906-1.1037 4.3469-1.8763 6.74913-2.64779 7.09231-1.8763 11.55361-5.739275 13.1551-11.700396-1.60149 5.960017-6.06279 9.822996-13.1551 11.700396-2.40223.77149-4.69007 1.54409-6.74913 2.64779-2.51663 1.21519-4.69008 2.6489-6.86353 4.19409-2.51662 1.98778-4.80446 4.30446-6.97791 6.95446-.80075.99223-1.4871 1.98667-2.17345 2.9789-1.37271 3.20075-.80075 5.85076 1.60149 7.61558 3.20297-3.64223 6.97791-6.29113 11.43921-7.83632 2.40223-.88407 5.03325-1.54519 7.77866-1.8763h.11439c5.14765.11037 9.60894-.88296 13.26948-2.75927l8.8082-5.96001c-.68636 1.76703-1.37271 3.31112-1.71589 4.85631l-.11439.11037c-1.60149 5.40816-1.3727 9.71262.57196 13.13411 3.66055 5.40706 8.57941 8.60892 14.64219 9.93336l-.11439-.11147c-.91514-.88297-1.83027-1.8752-2.51663-2.75927-.11439-.11037-.34317-.33111-.34317-.44038-1.94467-2.53852-3.20298-5.40816-3.77494-8.38927.91513-6.18076 5.14764-10.48522 12.46874-13.13301.34317-.11148.68635-.22075.91513-.33112-.22878.11037-.57196.21964-.91513.33112-.91514.77259-1.71588 1.54408-2.51663 2.42815-4.23251 4.5252-5.60521 9.0493-4.11811 13.5756.11439.22074.11439.33111.22878.66222.34318.88297.80074 1.65556 1.3727 2.42816 1.71589 2.09704 4.11812 2.86964 7.43549 2.42815-4.3469-5.18742-4.3469-10.04483.22879-14.78967.80074-.88297 1.60148-1.76593 2.51662-2.42816 2.28784-1.76593 4.91886-2.9789 8.00745-3.7515.68635 3.53187.11439 7.06262-1.83028 10.37375-.91513 1.43592-1.94466 2.87074-3.31737 4.19519 1.94467-.55186 3.88934-1.21519 5.71961-1.98778 7.43549-3.19965 13.15509-8.16633 17.3876-14.90005.11439-.21963.22878-.33111.22878-.55185-.11439.11148-.34317.11148-.34317.22074h-.1144c-3.31737.99334-6.52035 1.43482-9.72332.99334h-.1144.1144c2.05905-1.54519 3.77493-3.20075 5.14764-4.96668.22878-.22074.34318-.44149.57196-.66333.68635-.99223 1.25831-1.98667 1.71588-2.97891.91514-1.8763 1.4871-3.86297 1.71588-5.960013-.22878 2.097043-.80074 4.083713-1.71588 5.960013-.45757.99224-1.02953 1.98668-1.71588 2.97891-.22878.22074-.34318.44148-.57196.66333-1.37271 1.76593-3.08859 3.42149-5.14764 4.96668h-.1144.1144c3.20297.44038 6.40595 0 9.72332-.99334h.1144c0-.11037.22878-.11037.34317-.22074 2.05906-.77149 4.11812-1.76593 6.17603-3.09038-.22764-1.98667-.34317-3.86297-.11439-5.84965.34318-4.856306 2.28784-9.050393 5.94839-12.692626-3.66055 3.642233-5.60521 7.83632-5.94839 12.692626-.22878 1.98668-.11439 3.86298.11439 5.84965 1.60149 4.63557 4.00373 8.16743 7.20785 10.70596 3.08749 2.53853 6.74799 3.97334 11.32369 4.41483 4.0037.22074 7.551-.44149 10.5241-1.98668.1143-.11147.3431-.22074.5719-.33111h.1144c0-.11147.2288-.22074.3443-.33221.2277-.11037.6864-.33112.7996-.44038-.3431-.11148-.7996-.22074-1.2583-.33111-5.262-.88407-9.6089-3.31113-13.4983-7.50632-2.1734-2.75926-1.9446-5.51853.4565-8.38817 1.3727-1.54519 2.4034-3.200749 3.4317-4.96668 1.4883-2.869638 2.5167-5.960018 2.9754-9.271139-.4576 3.311121-1.4871 6.401501-2.9754 9.271139-1.0283 1.765931-2.059 3.42149-3.4317 4.96668 5.6052-1.21408 9.7233-3.42149 12.5831-6.51187.2288-.219638.4576-.551853.6875-.771491l.1144-.111475c.1155-.220741.3432-.440379.4576-.662224h.1144-.1144c.1144-.111474.1144-.111474.2287-.220741 1.9436-2.648897 3.0875-5.408164 3.5462-8.498544.1144-.441483.1144-.772595.1144-1.214078v-.993336c0-.882966 0-1.765931-.1144-2.648897-.1144 0-.1144 0 0 0-.2288-1.324448-.4576-2.648897-1.0295-3.862974.5719 1.214077.8007 2.538526 1.0295 3.862974-.1144 0-.1144 0 0 0 .1144.882966.1144 1.765931.1144 2.648897v.993336c0 .441483 0 .772595-.1144 1.214078-.4576 3.09038-1.6015 5.849647-3.5462 8.498544-.1155.110371-.1155.110371-.1155.220741h-.1144c-.1155.220742-.3432.440379-.4576.662224l-.1143.111475c.1143.110371.2287.110371.3431.110371.3432.11037.6864.331112 1.0296.331112 1.9435.663328 4.1181 1.103707 6.2915 1.324448 4.3469.331112 8.8071-.220741 13.6115-1.876302 4.9189-1.214078 8.5795-3.642233 10.6385-7.174095-3.4318 1.765931-7.5499 2.428155-12.1256 1.986672-4.0037-.441483-6.9779-2.207414-9.0369-5.518535l.2288-.11037h.1155-.1121l-.2288.11037 4.348-.882965-3.776.772595-.2277-.772595c6.1761-9.271139 10.7517-8.940027 13.8415.772595 2.9742-5.518535 2.4022-11.147441-1.8303-16.886718 6.8635 4.304458 14.5266 5.960018 23.2216 4.966682 5.9484-1.765931 9.8377-4.635569 11.7824-8.277803-2.5167 1.765932-6.5204 2.428156-12.1256 2.097044-6.8635-.662224-12.9274-2.759268-17.8463-6.511872-.2288 0-.3432-.11037-.3432-.220741-3.6605-2.759267-6.7491-6.180759-9.3801-10.374846 15.0997-6.842983 19.2178-4.635569 12.4687 6.511872 0 .11037 0 .11037-.1155.220741 7.0923-3.642233 10.7528-7.174096 10.7528-10.595587 0-3.421492-3.8893-8.277803-11.668-14.348191-4.2325-1.103707-6.6347-3.421492-7.4354-7.063725.8007 3.642233 3.2029 5.960018 7.4354 7.063725.6875.11037 1.2595.331112 1.9447.331112 6.0628 0 10.4097-2.207414 13.0407-6.622242-2.2878 1.103707-4.348 1.986672-6.1772 2.317785-.1144 0-.1144 0-.1144.11037h-.2287c-.2288.110371-.4576.110371-.4576.220742-1.9447.220741-3.6606.11037-5.0321-.331112 0-.110371-.1156-.110371-.2288-.110371-4.1193-2.207414-6.8635-5.518535-7.7787-10.264475 3.0875-3.973345 7.32-1.876302 12.4676 6.4015 3.3174-7.063724 1.4871-12.471889-5.604-16.5556046-4.1193-2.3177847-7.3211-4.6355694-9.7234-7.06372481l-.2288-.1103707c-.2287-.2207414-.3431-.4414828-.5719-.66222419-.6875-.7725949-1.2595-1.5451898-1.8314-2.4281554.5719.8829656 1.1439 1.6555605 1.8314 2.4281554.2288.22074139.3432.44148279.5719.66222419l.2288.1103707c1.9435 1.87630191 4.2314 3.09037961 6.8636 3.53186241.7996.2207414 1.7158.3311121 2.5154.2207414 2.6322 0 4.8045-1.103707 6.6359-3.09037961 2.2879-2.75926749 2.8598-5.51853499 1.6004-8.49854389-1.4871 3.4214917-4.0038 5.1874229-7.32 5.2977936-2.6321.1103707-4.5757-.6622242-6.1772-2.3177847-.4575-.6622242-.9151-1.3244484-1.2583-1.9866726-1.7159-3.0903792-3.0886-7.5052072-4.348-13.4652252-.6864-3.531863-3.0875-6.732613-7.0912-9.712622 6.176-.772595 9.4946-2.759267 9.951-6.070388-2.9742 1.434819-5.9473 1.986672-9.0358 1.324448-2.5167-4.635569-6.5204-8.277802-12.1268-10.705958-3.0874-.993336-6.4059-1.214078-9.9509-.662224-.572.110371-1.2595.331112-1.8314.331112.5719 0 1.2594-.220741 1.8314-.331112 37.4365.334534-1.9801-11.644738-16.70127-6.840776zm16.47247 26.047485c-1.8314.882966-3.5473 1.214078-4.8045 1.103707 1.2583.110371 2.9742-.220741 4.8045-1.103707.2288-.110371.3432-.220741.4564-.220741 1.7159-.882966 3.4318-2.097044 5.1477-3.752604-1.7159 1.65556-3.4318 2.869638-5.1477 3.752604 1.7159 1.103707 3.0886 2.317784 4.4613 4.083716-.4576 2.538526-1.3727 4.194086-3.0886 5.408164 1.7159-1.214078 2.631-2.869638 3.0886-5.408164-1.3727-1.765932-2.7454-2.980009-4.4613-4.083716-.1132 0-.2276.11037-.4564.220741zm-41.18116-9.712621c1.71588 0 3.20298.220741 4.80447.772594.22878.110371.57196.331113.91514.441483 4.11811 2.428156 7.66427 5.187423 10.63846 8.277803l4.46129-1.655561-3.36705.599788-10.13121 2.15948c-.45757 0-.80075 0-1.14393.11037-1.14392.110371-2.17345.110371-3.20297 0-.57196-.11037-1.25832-.11037-1.83028-.11037-2.28784-.993337-3.54615-2.538526-3.77494-4.74594-.34317-2.097044.57196-4.083716 2.63102-5.849647h-1.3727c-1.02953.11037-2.17345.220741-3.31738.551853 0-2.207414 1.25832-3.973345 4.00373-5.187423-2.74541 1.214078-4.00373 2.980009-4.00373 5.187423 1.14393-.331112 2.28785-.441483 3.31738-.551853h1.3727zm23.90795 46.3556936c-.68635-2.6488968-1.71588-5.2977936-3.20298-8.0570611 1.4871 2.7592675 2.51663 5.4081643 3.20298 8.0570611.57196 4.1940864-2.05906 8.0570614-7.89191 11.3681824 5.83285-3.311121 8.46387-7.174096 7.89191-11.3681824zm-9.15137-16.2244929c-2.97419-2.9800089-6.52035-5.0770527-10.52407-6.6222417-3.43176-1.103707-6.86353-1.324449-10.52407-.772595 3.66054-.551854 7.09231-.331112 10.52407.772595 4.00372 1.545189 7.54988 3.6422328 10.52407 6.6222417z" style="fill:#e90909;fill-opacity:1;stroke:#000;stroke-width:2.32979941;stroke-miterlimit:4;stroke-dasharray:none;stroke-opacity:1" transform="matrix(1.04199 0 0 1.01841 -726.00183 150.09221)"/>
        <path d="M977.27081-26.282737c.34318-.11037.68636-.11037 1.14393-.11037l8.48986-1.103707c-2.9742-3.09038-5.97324-5.849647-10.09135-8.277803-9.37034-6.025191-14.22641 10.996068.45756 9.49188zM951.64698-.4559927l1.02953-7.8363197c-2.74541-.2207414-5.83399-.2207414-9.03697-.1103707l-.1144-.1103707h-.11439v.2207414l3.88933 8.2778025 1.60149 2.3177847 2.74541-2.7592675z" style="fill:#e90909;fill-opacity:1;stroke:#000;stroke-width:2.32979941;stroke-miterlimit:4;stroke-dasharray:none;stroke-opacity:1" transform="matrix(1.04199 0 0 1.01841 -726.00183 150.09221)"/>
        <path d="m948.76234 3.9588353 3.79978 6.2911297c7.09231-.3311119 14.18462-.220741 21.50572.441483 4.3469.331112 7.66427 1.876302 9.83772 4.635569 2.74541-2.759267 2.63101-6.2911295-.1144-10.5955868-.91513-1.2140777-1.94466-2.4281554-3.20297-3.5318624-4.80447-1.103707-9.60894-1.6555605-14.29902-1.6555605-4.57568.1103707-9.38015.1103707-14.64219 0l-2.74541 2.7592675-1.60149-2.3177847c-6.52035 0-12.69752 0-18.53152-.1103707-3.66054-.3311121-7.2067-3.0903796-10.63846-8.0570611-1.60149 1.8763019-2.17345 4.414828-1.71588 7.2844662 1.60149 4.8563108 4.69007 7.9466904 9.26576 9.1607681 6.06278 1.8763014 12.35434 2.7592674 19.10348 2.5385264.22878-.110371.45757-.110371.68635-.110371l3.29253-6.7326127z" style="fill:#e90909;fill-opacity:1;stroke:#000;stroke-width:2.32979941;stroke-miterlimit:4;stroke-dasharray:none;stroke-opacity:1" transform="matrix(1.04199 0 0 1.01841 -726.00183 150.09221)"/>
        <path d="m952.56212 10.249965-4.3469-6.2911297-2.74541 6.7326127-.91514 2.869638c4.23251-.11037 8.00745.220742 11.09604 1.103707l-3.08859-4.414828zM867.91197-20.530133c-.1144 0-.22879-.220741-.34318-.220741-3.77494.331112-7.2067-.993336-10.29529-4.414828-1.71588-2.759268-2.8598-5.518535-3.66055-8.498544-.22878-1.103707-.45756-2.097043-.57196-3.20075 1.60149-4.083716 1.14392-7.946691-1.14392-11.478553-2.8598-.441483-4.46129 0-5.26203 1.434819-.1144 0-.1144 0-.1144.110371 1.4871 3.531862 1.25832 6.842983-.45756 9.822992-2.17345.662224-3.88934.110371-5.37643-1.434819 0-.110371 0-.220742-.1144-.331112-1.83027-.441483-3.20297.11037-3.88933 1.54519-1.71588 3.090379-2.51662 5.849647-2.40223 8.388173.80074 1.103707 1.71588 1.986672 2.8598 2.759267 1.4871.882966 2.9742 1.434819 4.80447 1.434819.34318 2.428156-.91514 4.414828-3.88933 6.29113-.11439 0-.11439 0-.11439.110371 4.11811 3.20075 9.03697 4.414828 14.87097 3.752604-5.834.662224-10.75286-.551854-14.87097-3.752604 0-.110371 0-.110371.11439-.110371-1.37271-1.103707-3.43176-1.986672-6.06278-2.428155-3.20298.331112-5.834 1.103707-7.77867 2.207414-1.02952.772595-1.48709 1.214078-1.48709 1.65556-.11439.331112.22878.551854.80074.772595 3.31737-.220741 5.71961.551854 7.2067 2.428156 1.60149 3.973345 0 7.3948366-4.91886 9.9333627-1.25831 2.207414-1.14392 4.1940866.1144 5.7392764 2.17345 1.3244484 4.2325 1.9866726 6.17717 1.7659312 2.40223-2.5385261 3.88933-5.0770522 4.69008-7.6155783 1.14392 2.8696382 1.14392 5.4081643 0 7.725949 3.77493 1.5451898 6.97791 1.2140777 9.72332-1.2140777.45757-.3311121.91514-.8829656 1.37271-1.4348191-.45757.5518535-.91514 1.103707-1.37271 1.4348191-2.17345 2.4281554-3.54615 5.0770522-4.00372 7.8363197.45757-.110371.91514-.110371 1.37271-.110371 4.80446-.5518532 8.46501.551854 10.63846 2.869638l-.11439.551854-10.40968-.110371c.11439 3.531863 1.94466 6.070389 5.37643 7.725949 3.43176 1.54519 8.46501 2.317785 14.98536 2.207414-6.52035.110371-11.5536-.662224-14.98536-2.207414-5.71961 4.74594-8.00745 10.264475-6.97792 16.445235 1.25831-1.876302 3.20298-3.09038 5.60521-3.421492.22879-.110371.45757-.110371.68635-.110371.1144-.110371.34318-.110371.45757-.110371h.22879c4.57568-.441482 10.98164 1.214078 19.21787 4.856311-5.49082 3.09038-11.89678 2.869639-19.21787-.441483 3.77494 6.842984 10.63846 9.38151 20.59057 7.83632l.1144.331112c-5.94839 1.765931-10.75286 4.74594-14.75658 9.050398v.11037c-.1144.110371-.22879.220742-.22879.220742v.11037c.11439-.11037.34318-.11037.34318-.11037h.11439c7.09231-2.207414 14.64219-2.317785 22.99281-.551854-9.26576 1.214078-15.21415 2.980009-17.95956 5.518535-1.60149 1.434819-2.05906 3.09038-1.48709 5.077052 7.77866-2.869638 16.47246-1.65556 25.85261 3.531863l-.11439.220741-.22879.551854c-8.46501-.882966-13.15509.220741-14.29901 3.311121.91514 0 1.71588.11037 2.63102.220741 6.40596.993336 11.43921 3.09038 15.44293 6.180759-4.57568 1.876302-9.95211.993337-16.12928-2.428155 1.83027 4.304457 5.03325 7.615578 9.60893 9.602251 1.25832-1.54519 3.08859-2.428156 5.49082-2.648897 0-.110371 0-.110371.1144 0 .22878-.110371.57196-.110371.80074-.110371-.34318.220742-.68635.551854-.91514.882966-.11439.110371-.34317.220741-.34317.220741-.91514.882966-1.60149 1.876302-1.94467 2.759268.34318.110371.68635.220741 1.14392.331112.11439.110371.22879.110371.34318.110371 2.74541.551853 5.834.882965 9.26576.882965-4.23251.441483-7.66427 1.214078-10.40968 2.428156.34317.220741.57196.551853.91513.882965 2.63102 2.428156 5.71961 2.648897 9.38016.331112 3.66054-2.207414 5.60521-5.408164 5.94839-9.712621-3.31737-2.097043-6.17718-4.525199-8.8082-7.505208h-.11439c-1.94466-2.317785-3.77494-4.856311-5.37643-7.725949-.45756-.772595-1.02953-1.765931-1.3727-2.648897 6.17717 6.401501 10.98164 6.953355 14.29901 1.655561 2.8598-8.057061 10.1809-13.023743 21.96328-14.900045-8.80819-.331112-14.64218-3.642233-17.73077-10.264475-.68635-4.194086 1.60149-7.284466 6.40596-9.381509.34317 5.297793 3.08858 9.050397 8.6938 11.257811.34317-.110371.80074-.110371 1.25831-.110371l-.57196-3.642233c-2.05906-3.20075-4.3469-6.4015-6.52035-9.381509-8.92258-12.58226-18.76031-25.054149-29.39877-37.3052967-4.69008-5.4081643-10.1809-10.1541043-16.47246-14.3481913zM881.41023-51.99911c.34318-.993336.57197-1.986672.68636-2.869638.22878-2.759267-.68636-5.518535-2.63102-8.277802-.11439-.110371-.11439-.220742-.11439-.331112-4.4613-5.408165-9.15137-7.615579-14.18462-6.622242-3.54616.993336-5.49082 2.869638-6.06278 5.518535 4.69007-.441483 8.00744.331112 10.0665 2.538526 1.83027 2.097043 2.28784 4.414828 1.14392 6.842983.11439 0 .22879 0 .45757.110371.91514 3.090379 3.08859 5.297793 6.52035 6.622242 2.40223-.551854 3.77494-1.655561 4.11811-3.531863z" style="fill:#e90909;fill-opacity:1;stroke:#000;stroke-width:2.32979941;stroke-miterlimit:4;stroke-dasharray:none;stroke-opacity:1" transform="matrix(1.04199 0 0 1.01841 -726.00183 150.09221)"/>
        <path d="M882.09659-54.868748c-.11439.882966-.34318 1.876302-.68636 2.869638-.34317 1.876302-1.71588 2.980009-4.11811 3.531863-3.43176-1.324449-5.60521-3.531863-6.52035-6.622242-.22878-.110371-.34318-.110371-.45757-.110371-3.08859-1.324448-5.26204-.993336-6.29156 1.103707-1.4871 3.09038-1.83028 6.842983-.91514 11.257811-2.51663 4.63557-5.60521 7.063725-9.38015 7.174096h-.1144c.80075 2.980009 1.94467 5.739276 3.66055 8.498544 3.08859 3.421492 6.52035 4.74594 10.29529 4.414828.11439 0 .22878.220741.34318.220741l.45757-.772595c4.34689-5.849647 8.23623-12.140777 11.5536-18.542277 1.3727-2.759268 3.77494-5.297794 7.2067-7.615579.45757-1.876301-.11439-3.862974-1.37271-5.628905l-3.66054.220741zM846.52064-48.798359c-.11439-.110371-.11439-.220742-.11439-.331112-1.25831-3.200751-3.77494-5.077053-7.54988-5.849648-4.11811.110371-8.00744 1.214078-11.89678 3.531863-2.40223 1.986672-3.88933 4.525199-4.57568 7.725949 3.54616-1.876302 7.3211-2.759268 11.21043-2.538526 3.66054 1.214077 5.94839 3.090379 6.97791 5.518535.1144.11037.1144.220741.1144.331112 1.48709 1.54519 3.20298 2.097043 5.37643 1.434819 1.71588-2.980009 1.94466-6.29113.45756-9.822992zM830.73453-15.687149c-1.48709-1.876302-3.88933-2.648897-7.2067-2.428156-.57196-.220741-.91513-.441483-.80074-.772595l-.34318.441483c-2.05906 0-4.00372.662224-5.94839 1.986673-4.3469 3.642233-7.32109 7.5052074-8.57941 11.699294-.11439 2.7592675.22879 4.8563108 1.02953 6.2911299 1.4871 2.5385261 3.54616 3.8629745 6.17718 4.0837159-.80075-4.414828.45756-8.2778025 4.00372-11.4785528 3.31737-1.6555605 5.60521-1.5451898 6.74913.1103707 4.91886-2.5385261 6.52035-5.9600177 4.91886-9.9333627zM884.04125 99.870974c-2.05905-1.43482-3.43176-3.199647-4.00372-5.628906-1.25831 1.544086-2.05906 3.421492-2.40223 5.40706-.45757 4.083712 2.17345 6.402602 8.00744 7.285572-3.20298-2.75927-3.66054-5.07705-1.60149-7.063726zM825.12932 139.49405c.34318 1.98668-.11439 3.86298-1.25831 5.73928-2.74541 2.09594-6.17718 3.53076-10.1809 4.30335-1.60149 1.32445-1.94466 2.87075-1.02953 4.30446 3.08859.22074 5.49082.88297 7.54988 1.98667l4.69008-.99333-4.69008.99333c.57196.44149 1.25831.99334 1.83027 1.54519 2.28785 3.64224 3.54616 6.62225 3.66055 9.16077 2.28784 0 4.57569-.44148 6.74914-1.43482 4.46129-2.53963 8.46501-5.07815 11.5536-8.05816-4.00373-1.76593-7.3211-4.74594-10.1809-8.82966-.34318-3.09038-1.71588-6.18076-4.11811-9.27003-1.83028-.88186-3.31738-.66112-4.57569.55295z" style="fill:#e90909;fill-opacity:1;stroke:#000;stroke-width:2.32979941;stroke-miterlimit:4;stroke-dasharray:none;stroke-opacity:1" transform="matrix(1.04199 0 0 1.01841 -726.00183 150.09221)"/>
        <path d="M823.87101 145.23333c1.14392-1.8763 1.60149-3.7526 1.25831-5.73928-.22878-.66332-.45757-1.43481-.91514-2.20741-4.80446-1.32445-9.95211-1.65556-15.21414-.66333-5.26204.88407-8.35063 3.53187-9.26576 7.83743-.91514 4.41482 0 7.06262 2.63101 8.05706 1.60149-4.30446 4.3469-6.51187 8.00745-6.51187 3.08859.44148 4.11812 1.65556 3.31737 3.53186 4.00372-.7726 7.43549-2.20742 10.1809-4.30446zM810.83031 169.73563c-1.4871-.33112-2.17345-.88297-2.40224-1.76593-4.2325.55185-7.43548 2.75926-9.38015 6.62224-1.3727 4.41483-1.02953 8.16743 1.25832 11.36818 1.3727 3.64223 4.00372 6.07039 7.77866 7.1741-1.60149-3.19965-2.05906-6.51077-1.37271-10.15411.68636-2.53853 2.40224-3.64223 4.69008-3.53076 1.60149-.22074 2.8598-.55185 3.77494-.99333 2.28784-.99334 2.97419-2.86964 1.94466-5.62891-.34317-1.54629-2.40223-2.53963-6.29156-3.09148zM845.14794 210.1313c-1.25831-2.53852-1.4871-5.51853-.34318-8.71928-.34317-3.09038-2.28784-5.2978-5.83399-6.4015-3.66055-.33112-5.94839.66222-6.97792 3.31112-.91514 3.31112-.68636 6.29113.68635 9.0504 1.83027 4.52519 4.80447 7.5052 8.80819 9.27003 1.83028.7726 3.77494.99334 5.60521.55185 3.31738-.77149 5.37643-1.87519 6.40596-3.42149-3.66055-.10926-6.40596-1.21297-8.35062-3.64113zM892.73505 231.32248c-.80074 4.30335-.57196 7.72595.80075 10.04373.45757.7726 1.02953 1.32445 1.71588 1.8763 1.4871 1.10371 3.31737 1.65556 5.7196 1.76593 3.54616 0 8.12184-.88296 13.84145-2.86963-4.11812 3.31112-8.00745 5.51853-11.89678 6.51076-.68635.11148-1.25831.33222-1.83027.33222-3.54616.55185-6.86353 0-10.06651-1.32445-1.60149-.66333-3.20298-1.65556-4.69008-2.6489-.45756-.44037-.91513-.99223-1.60148-1.32444.34317.55185.68635 1.1037.91513 1.65556 4.69008 8.82965 10.06651 11.70039 16.24368 8.71928v-.22074c.68635-.33111 1.25831-.66222 1.83027-.88297.22879-.11037.45757-.22074.80075-.33111 3.08859-1.43482 6.40596-1.8763 9.49454-1.43482-3.08858-.44148-6.40595 0-9.49454 1.43482-.34318.11037-.57196.22074-.80075.33111-.57196.22075-1.14392.55186-1.83027.88297v.22074c-2.17345 6.73261-8.6938 11.03707-19.44666 12.91337 11.21043 4.08372 19.56105 1.76593 25.16627-6.95335l.45756.33111c-.57196 2.75927-1.3727 5.40706-2.51662 7.83632-3.08859 6.95336-8.46502 12.69263-15.78611 17.43857 5.7196.88407 10.63846.22074 14.4134-1.8752 4.00373-2.20741 7.09231-6.07038 8.92259-11.47855-.22879 6.84298-2.40224 12.36152-6.40596 16.66598.91514 1.43592 1.94466 2.87074 3.20298 4.08371 1.25831 1.21518 2.63102 2.31889 4.00372 3.31112 3.08859 2.09705 6.63474 3.64224 10.75286 4.85631-5.14765.33112-8.92259 0-11.09604-1.43481-.57196-.33222-.91513-.66333-1.25831-.88407h-.11439c-.68635-.44038-1.14392-.7715-1.25831-.88297-1.71589-.66222-2.85981-.99223-3.43177-1.21408-.57196-.11147-1.14392-.22074-1.94466-.22074-2.28784-.11037-5.71961.33111-10.40968 1.32445-6.06278 2.53853-13.15509 4.19409-21.62011 4.85521-1.94467-.11037-3.66055-.55186-5.26204-1.32335-1.60149-.77259-3.08858-1.8763-4.46129-3.31112-.34318-4.74704-1.71588-10.04484-4.23251-15.67264-1.3727-.99333-3.43176-1.32445-6.17717-1.10371-1.25831-.22074-1.94467.11038-2.28784 1.21408v.33111c4.80447 7.06373 4.00372 10.26558-2.74541 9.71373-1.60149.11037-4.23251.55185-7.77867 1.43482-3.66054 1.76593-4.69007 3.7515-3.20297 5.95891l.34317.33222c.22879.21964.34318.55185.57196.88296.11439.11037.11439.11037.22879.22075 1.60149 2.09594 4.00372 3.7515 6.97792 4.96668 4.57568 1.54408 10.63846 1.98667 18.30273 1.1037-4.3469 3.19965-10.86725 3.97335-19.78983 2.09594-2.63102-.88296-5.834-2.31778-9.49455-4.41482l-2.17345 1.98667c3.66055 3.86297 5.60522 7.61558 6.06278 11.25781-.45756 2.53853-2.05905 4.74594-4.80446 6.73372 0 .21963 0 .33111-.1144.44038-.91513 2.20741-.22878 3.86297 1.83028 4.85631l5.7196-.11148c3.31737-1.8752 4.91886-4.41483 5.03326-7.61447.11439 3.19964.91513 4.96668 2.17345 5.40706 2.8598.55185 5.49082.22074 7.89305-.55186 2.17345-.99223 4.3469-1.1037 6.40596-.55185 3.31737-1.65556 5.26203-3.53076 6.06278-5.95891-.80075 2.42815-2.74541 4.30335-6.06278 5.95891-2.05906-.55185-4.23251-.44038-6.40596.55185-.68635.22075-1.3727.66333-2.05906 1.10371l-5.7196 4.63557 2.17345 2.6489h.11439c5.03325 1.32445 8.80819 3.7515 11.21043 7.28446.68635 1.54519.57196 2.6489-.57197 3.31112l-.11439.11148c-.34317 1.54408.57196 2.42705 2.85981 2.86964 2.51662.99333 4.69007 1.21407 6.40595.11037 3.88933-2.42705 6.06278-5.84965 6.52035-10.153-1.94466-2.87074-.80074-6.51187 3.66055-11.03707-4.46129 4.5252-5.60521 8.16633-3.66055 11.03707.80075 1.21407 2.28784 3.31112 4.23251 6.29002 3.20298-5.40706 6.17717-8.94002 9.03698-10.48521-2.85981 3.86297-3.88934 7.72595-3.20298 11.58892v.11147-.11147c5.37643-5.40706 11.78238-8.38817 19.44665-9.04929-2.40223 6.62224-8.35062 11.03707-17.73077 13.46412-.11439 0-.11439 0-.22879.11147 1.94467 4.96668 6.74914 6.62224 14.64219 5.07705 5.71961-2.09593 9.49455-5.6289 11.55361-10.37374l.57196.11037c.34317-2.98001 2.05905-5.51853 4.80446-7.61557-2.74541 2.09704-4.46129 4.63556-4.80446 7.61557-.1144.44149-.22879.7726-.22879 1.21408-.91513 11.14855 5.71961 16.44524 19.78984 16.11523h.68635c-.22879-.11148-.34318-.11148-.34318-.11148-.11439-.21964-.22878-.21964-.34317-.21964-5.14765-2.31888-7.77867-6.29112-7.43549-11.70039v-.22074c-.11439-3.09038 1.83027-6.62225 5.94839-10.59559 4.3469 5.6289 6.74913 11.69929 7.32109 18.10079 5.03325-7.28557 6.86353-15.45189 5.834-24.50229.11439.33111.11439.55185.22878.77259 0 .21964 0 .33111.1144.55186.34317 1.32334.80074 2.75926 1.3727 4.08261 4.00372 9.16187 12.12556 13.79634 24.25113 13.68597-7.09231-4.5252-12.12557-10.59559-15.09976-18.1008-.68635-.66222-1.37271-1.54409-2.05906-2.42705.68635.88296 1.37271 1.76593 2.05906 2.42705 4.3469 4.5263 10.0665 6.84298 17.04442 7.1741 1.83028-.11037 3.54616-.44038 5.14765-.99224 2.8598-1.21518 5.14764-3.20075 6.86352-5.96001l-.22764-.22075.45643-.55185c-.45643.33222-1.02953.66333-1.4871.88407-2.8598 1.65556-5.37643 2.42705-7.3211 2.20741-7.32109-.99333-11.43921-5.51853-12.35434-13.24448.57196-6.18186 3.54615-11.36929 8.6938-15.56337 1.14392-.99224 2.28784-1.8763 3.66054-2.6478v-.22074l.1144-.11147c.57196-4.5252 1.71588-9.49188 3.66054-14.90005-.80074 1.32445-1.83027 2.6489-2.97419 3.86298-.11439.11147-.22878.33221-.34318.44148-.11439.22074-.34317.33111-.45757.55185-2.40223 2.20742-5.26203 4.19409-8.69379 5.84965-.1144.11148-.34318.11148-.45757.11148-6.63474 1.87519-13.38388 1.54408-19.78984-.7726-3.43176-1.98667-6.06278-5.07815-7.89305-9.38151-.11439-.44148-.34318-.77259-.45757-1.21518-1.02953-3.42149-.45757-7.28447 1.60149-11.47745 2.97419-3.20075 6.74913-5.29779 11.32482-6.18186-4.3469 4.19519-6.06278 8.49854-5.26204 12.8041.22879.88297.45757 1.87631.91514 2.53853 1.14392 2.42816 3.08858 4.08372 5.94839 5.07705 2.51662.7726 5.49082.7726 8.6938 0 3.66054-.88296 6.29156-2.20741 8.12184-3.7515 1.83027-1.65556 2.63101-3.64223 2.51662-5.96002.11439-4.30335.34318-9.71262.80075-16.00375.80074-6.18076 2.8598-12.47189 6.29156-18.65154 3.43177-5.40817 8.23623-10.81743 14.75658-16.2245.34318-.33111.45643-.55185.68636-.77259 1.94466-2.20741 3.08854-4.74594 3.43174-7.39484.3432-2.86964-.3432-5.95891-1.94465-9.38151-.34317-2.42815-.45642-4.8552-.45642-7.17409l-.80075-1.76593c-14.29901.99223-26.0814 5.51853-35.34716 13.46522-4.00372-.44148-7.89305-.77259-11.89677-.99333-7.43549 0-14.07023 1.76593-19.56105 5.29779-5.94839 6.73372-11.09604 10.9267-15.67172 12.58226-.45757.11037-.80075.33111-1.25831.44038-4.00373 1.10371-7.54988.22074-10.40968-2.42705-3.20298-2.87075-2.17345-6.84299 3.31737-11.80967-7.55103-.22626-12.01232 2.64338-13.61381 8.49303zM1023.4852 103.62358c1.2583-2.20742 2.7454-4.30446 4.4613-6.291132-2.1734-.220742-4.348-.662225-6.2916-1.324449l-2.0602.331112c-2.8598 3.091484-6.9779 5.298899-12.5831 6.511869-2.4022 2.86964-2.631 5.62891-.4564 8.38818 3.8882 4.19519 8.2362 6.62224 13.4983 7.50631.1144-4.96779 1.1439-10.04484 3.4317-15.12189zM986.53657 185.62901c-1.3727.55185-2.28784 1.21408-3.31737 1.98667-1.71588 1.21518-2.8598 3.31112-3.43176 6.29113 10.06651.22074 16.13043 4.19409 18.18834 12.03041.1144.11037.1144.11037.1144.33111.34317-3.75261 1.3727-7.06373 3.20302-10.26448-.1144-.11147 0-.22074.1155-.22074-2.97535-4.85631-6.40711-8.49854-10.63847-11.14854-1.60264.22184-2.97534.55295-4.23366.99444zM994.31524 374.3629c-2.9742.66223-5.60522 1.87631-7.89306 3.75261-2.51662 2.31778-4.23251 4.85521-5.03211 7.72595-.91513 3.64223-.91513 7.17409-.22878 10.48521 1.3727 3.86298 4.46129 6.51077 9.38015 8.05706-1.94466-3.09037-2.51662-6.4015-1.94466-10.37484 1.94466-4.19409 4.91886-7.06262 9.03697-8.38817.11439-.22075.22764-.33112.34318-.55186.80074-2.09704 1.02838-4.19408.45642-6.51187-.80074-2.20741-2.17345-3.64223-4.11811-4.19409zM1020.511 393.34666c-1.9446-.11147-4.0037.11038-5.9484.66223-1.1439.33111-2.059.66333-3.2029 1.21518-.3432 4.30335.1144 8.49744 1.6014 12.58116 1.2595 2.53852 2.9754 4.63557 5.1477 6.07039 3.7749 1.32444 6.6347 1.54518 8.6949.55185 2.4023-.88297 4.1182-1.8763 5.3753-2.86964-3.4317.33111-6.0628-.55185-8.0074-2.42816-2.4023-2.86963-2.631-5.73927-.7996-8.60891l1.8302-1.76703.8008-.55186c-1.3739-1.8752-3.0897-3.53076-5.492-4.85521zM1065.2383 385.17923c-1.2583-1.43482-2.631-2.20741-4.0037-2.20741-2.1734 0-4.3469.77259-6.2915 2.09704-2.0591 1.8763-2.8599 4.08372-2.2879 6.51077 2.0591.55185 3.3174 1.54519 3.7749 3.09148.6875 1.65556.9152 3.19965.3432 4.5252-1.2583 2.53853-3.6594 3.75261-7.4355 3.64224.8008 2.53852 3.3174 3.86297 7.4355 4.19408 5.9484-.88296 8.9238-3.19964 9.1514-7.17409.572-4.74594.4576-9.60115-.572-14.45857 0-.11037 0-.11037-.1144-.22074z" style="fill:#e90909;fill-opacity:1;stroke:#000;stroke-width:2.32979941;stroke-miterlimit:4;stroke-dasharray:none;stroke-opacity:1" transform="matrix(1.04199 0 0 1.01841 -726.00183 150.09221)"/>
        <path d="M840.57225 294.01303c3.54616-.88296 6.17718-1.32444 7.77867-1.43481 6.74913.55185 7.54988-2.6489 2.74541-9.71373-.11439-.11037-.11439-.11037-.22879-.21964-.11439 0-.11439-.22074-.11439-.22074-3.08858-2.42815-6.97792-3.53186-11.43921-3.20075-6.63474.55185-11.21042 2.20742-13.72705 4.74594-3.08859 2.98001-4.3469 5.96002-3.54616 8.94113 4.4613-3.20075 9.49455-4.74594 14.98537-4.74594 3.54615 1.65556 4.57568 3.7515 2.97419 6.07039l1.71589-.66333c-.45757.11037-.80075.33111-1.14393.44148zM832.33602 307.14715c-6.40595 1.8763-10.63846 5.73927-12.81191 11.25781-.80075 4.85631-.45757 9.0504.91514 12.58226 2.40223 3.86297 5.7196 5.73928 9.72332 5.84965-1.83027-2.09705-2.63101-4.74594-2.17345-8.16744 1.02953-2.20741 2.85981-3.31112 5.49082-3.09037.1144-.11038.1144-.22075.1144-.44038 2.74541-1.98778 4.3469-4.19519 4.80446-6.73372-.45756-3.64223-2.40223-7.39484-6.06278-11.25781zM850.63876 335.9539h-.11439c-3.88933 4.5252-5.834 9.60225-5.94839 15.34042.80074 8.27781 5.834 11.25782 15.21415 8.82966-4.00373-2.42705-5.71961-5.95891-5.03325-10.48522 1.3727-2.75926 3.43176-3.86297 6.29156-2.9789h.11439c0-.11148 0-.11148.11439-.11148 1.14393-.66222 1.25832-1.76593.57197-3.31112-2.40224-3.53076-6.17718-5.95891-11.21043-7.28336zM1147.3719 61.903453l-.1144.331112.1144-.331112z" style="fill:#e90909;fill-opacity:1;stroke:#000;stroke-width:2.32979941;stroke-miterlimit:4;stroke-dasharray:none;stroke-opacity:1" transform="matrix(1.04199 0 0 1.01841 -726.00183 150.09221)"/>
      </g>
    </g>
    <path style="fill:#fcef3c;fill-opacity:1;stroke:#000;stroke-width:2.3349392400000002;stroke-miterlimit:4;stroke-dasharray:none;stroke-opacity:1" d="M298.18692 41.211635c-6.31949 0-11.44384 4.207648-11.44342 9.39712 0 4.096481 3.18868 7.571895 7.64353 8.859116-.09392.443989-.16758.981076-.26207 1.470542-2.06871-1.680902-4.89876-2.725884-8.0367-2.725883-6.31964 0-11.44356 4.207649-11.44356 9.397119 0 5.189471 5.12407 8.522081 11.44356 8.522082 2.17495 0 4.20788-.497046 5.94017-1.362941.17163.687511.26207 1.394562.26207 2.116146.00014 6.772668-7.89651 12.266468-17.60204 12.266468-9.04724-.000002-16.50361-4.770223-17.47109-10.903528.88445-.06562 1.78638-.221868 2.66427-.466269 5.98504-1.666098 9.19203-6.082151 7.16313-10.996895-2.02901-4.914745-8.55956-7.548265-14.54459-5.882167-3.17275.883211-5.56754 2.7913-6.81373 5.128962-.55782-.442891-1.04448-.806393-1.57239-1.219472 4.41347-2.254774 6.54466-6.759785 4.8044-10.975263-2.02874-4.914742-8.51582-7.548265-14.501-5.882166-10.04084 3.491785-14.90256 6.406389-.69883 17.574765 4.16384 5.422126 8.39715 9.591468 11.12445 22.091365l5.03643 18.617524c29.61501-6.688802 61.49279-8.097789 97.44491 0l4.78987-17.751351c.91254-9.282254 6.03227-15.244227 11.45823-22.993405 11.56391-12.571467 8.28115-13.619558-.74258-17.538898-5.98504-1.666099-12.51574.967424-14.54461 5.882166-1.69023 4.094416.2541 8.481105 4.41137 10.795928-.44544.357625-.90235.707378-1.35393 1.076005-1.28909-2.190936-3.61317-3.963841-6.63901-4.80616-5.98505-1.666098-12.47199.967422-14.501 5.882167-2.0289 4.914744 1.1781 9.330797 7.16314 10.996895.90654.252365 1.79505.404303 2.70802.466269-.97783 6.133306-8.51121 10.903528-17.55845 10.903528-9.70567-.000002-17.55843-5.4938-17.55843-12.266468-.00015-.721584.09071-1.428635.26206-2.116146-.03341-.142621-.05395-.287444-.08736-.430403 1.75075.892409 3.7732 1.434675 5.98379 1.434675 6.31964 0 11.48731-3.296746 11.48731-8.486214 0-5.18947-5.1674-9.432988-11.48731-9.432986-3.81387 0-7.17852 1.552394-9.25967 3.909488-.19304-.716018-.37375-1.45716-.56775-2.116145 4.81056-1.113207 8.34251-4.733634 8.34251-9.03845 0-5.189471-5.12377-9.397119-11.4437-9.39712z"/>
  </g>
  <path d="M300.00001 658.5s298.5-112.32031 298.5-397.77183V2.1764865H1.5V260.72817C1.5 546.17969 300.00001 658.5 300.00001 658.5z" style="opacity:1;fill:url(#b);fill-opacity:1;fill-rule:evenodd;stroke:none;stroke-width:1px;stroke-linecap:butt;stroke-linejoin:miter;stroke-opacity:1"/>
  <path d="M299.99999 658.50028S1.5 546.17992 1.5 260.72828V2.1764957h596.99999V260.72828c0 285.45164-298.5 397.772-298.5 397.772z" style="opacity:1;fill:none;fill-opacity:1;fill-rule:evenodd;stroke:#000;stroke-width:3.00000048;stroke-linecap:butt;stroke-linejoin:miter;stroke-miterlimit:4;stroke-dasharray:none;stroke-opacity:1"/>
</svg>
